<svg width="311" height="239" viewBox="0 0 311 239" fill="none" xmlns="http://www.w3.org/2000/svg">
<g clip-path="url(#clip0_2717_86898)">
<path d="M89.9668 80.6411L95.6091 82.153C99.5342 83.2047 101.646 85.6257 100.649 89.3464L100.624 89.4418C99.6304 93.1488 96.4665 94.0539 92.7594 93.0606L90.3063 92.4033L88.5169 99.0813L85.2596 98.2086L89.9668 80.6411ZM93.3304 90.6573C95.4837 91.2343 96.9233 90.4953 97.4419 88.56L97.4675 88.4646C98.0262 86.3794 97.0187 85.233 94.9335 84.6743L92.5485 84.0352L90.9453 90.0182L93.3304 90.6573Z" fill="#1D1D1D"/>
<path d="M103.398 89.28L106.369 90.0761L105.723 92.4884C106.283 91.7705 107.051 91.2427 107.922 90.9768C108.793 90.711 109.725 90.72 110.591 91.0028L109.861 93.7285C107.258 93.031 105.46 93.4697 104.73 96.1954L102.94 102.873L99.9693 102.077L103.398 89.28Z" fill="#1D1D1D"/>
<path d="M110.282 98.1503L110.323 98.0004C110.843 96.3213 111.991 94.9076 113.528 94.0536C115.064 93.1996 116.871 92.971 118.572 93.4155C120.273 93.8599 121.737 94.9431 122.659 96.4397C123.581 97.9362 123.891 99.7308 123.524 101.45L123.469 101.654C122.937 103.329 121.78 104.735 120.239 105.579C118.697 106.423 116.89 106.64 115.192 106.185C113.495 105.73 112.038 104.639 111.125 103.137C110.212 101.635 109.913 99.8395 110.29 98.1231L110.282 98.1503ZM120.409 100.864L120.449 100.714C121.179 97.9879 120.229 96.0827 118.062 95.5021C115.895 94.9214 114.147 96.1036 113.442 98.734L113.387 98.9384C112.686 101.555 113.607 103.569 115.801 104.157C117.995 104.745 119.718 103.439 120.42 100.823L120.409 100.864Z" fill="#1D1D1D"/>
<path d="M127.794 98.2123L126.05 97.7449L126.649 95.5098L128.393 95.9772L128.868 94.2055C128.957 93.6032 129.181 93.0289 129.523 92.5253C129.865 92.0216 130.316 91.6015 130.843 91.2963C131.37 90.991 131.959 90.8085 132.566 90.7622C133.173 90.716 133.782 90.8072 134.349 91.0291C134.928 91.164 135.478 91.4004 135.974 91.7273L135.356 94.0305C134.958 93.7636 134.517 93.5664 134.052 93.4473C132.853 93.1259 132.154 93.7713 131.858 94.8752L131.35 96.7696L134.267 97.5511L133.668 99.7862L130.765 99.0084L127.924 109.612L124.953 108.815L127.794 98.2123Z" fill="#1D1D1D"/>
<path d="M133.655 104.413L133.695 104.263C133.873 103.386 134.232 102.556 134.748 101.824C135.264 101.093 135.926 100.477 136.692 100.015C137.459 99.5528 138.313 99.255 139.2 99.1404C140.088 99.0257 140.99 99.0967 141.848 99.3487C145.037 100.203 147.409 102.855 146.179 107.447L145.948 108.306L136.545 105.786C136.004 108.241 136.889 109.954 139.069 110.538C140.855 111.017 141.985 110.56 142.539 109.364L145.442 110.142C144.303 112.758 141.735 113.619 138.437 112.735C137.544 112.559 136.7 112.193 135.961 111.663C135.222 111.133 134.605 110.451 134.152 109.662C133.699 108.874 133.42 107.997 133.334 107.092C133.249 106.186 133.358 105.273 133.655 104.413ZM143.59 105.498C144.031 103.25 143.163 101.965 141.323 101.472C140.471 101.235 139.561 101.338 138.783 101.759C138.006 102.18 137.422 102.887 137.154 103.729L143.59 105.498Z" fill="#1D1D1D"/>
<path d="M147.27 110.516L150.063 111.264C149.848 112.667 150.33 113.541 152.074 114.009C153.819 114.476 154.531 114.053 154.819 112.977C155.108 111.9 154.348 111.302 152.565 110.488C149.331 109.038 148.333 107.748 148.979 105.335C149.625 102.923 152.407 102.135 154.82 102.781C157.436 103.482 159.259 105.022 158.812 107.999L156.086 107.269C156.125 106.996 156.109 106.718 156.038 106.451C155.967 106.185 155.843 105.936 155.674 105.718C155.504 105.501 155.292 105.32 155.051 105.187C154.81 105.053 154.544 104.97 154.27 104.942C152.989 104.598 152.061 105.007 151.817 105.92C151.572 106.833 152.083 107.379 154.104 108.286C156.988 109.57 158.59 110.788 157.863 113.5C157.137 116.212 154.928 117.096 151.63 116.212C148.332 115.328 146.666 113.261 147.27 110.516Z" fill="#1D1D1D"/>
<path d="M159.387 113.762L162.181 114.51C161.965 115.913 162.447 116.787 164.191 117.255C165.936 117.722 166.648 117.3 166.937 116.223C167.225 115.146 166.465 114.548 164.682 113.734C161.448 112.284 160.45 110.994 161.096 108.581C161.743 106.169 164.525 105.381 166.937 106.027C169.567 106.732 171.39 108.272 170.929 111.245L168.203 110.515C168.242 110.242 168.226 109.964 168.155 109.698C168.085 109.431 167.961 109.182 167.791 108.964C167.621 108.747 167.41 108.566 167.168 108.433C166.927 108.299 166.661 108.216 166.387 108.188C165.106 107.845 164.179 108.253 163.934 109.166C163.689 110.08 164.2 110.625 166.221 111.532C169.106 112.816 170.707 114.034 169.981 116.746C169.254 119.459 167.045 120.342 163.761 119.462C160.476 118.582 158.783 116.507 159.387 113.762Z" fill="#1D1D1D"/>
<path d="M175.627 104.558C175.708 104.201 175.894 103.877 176.161 103.627C176.428 103.377 176.763 103.212 177.124 103.153C177.485 103.095 177.855 103.146 178.187 103.3C178.519 103.454 178.797 103.703 178.986 104.016C179.175 104.329 179.267 104.692 179.248 105.057C179.23 105.422 179.102 105.774 178.883 106.066C178.663 106.358 178.361 106.578 178.015 106.698C177.67 106.817 177.296 106.831 176.943 106.736C176.712 106.682 176.494 106.583 176.302 106.443C176.111 106.304 175.949 106.127 175.826 105.924C175.704 105.721 175.623 105.496 175.589 105.261C175.555 105.027 175.568 104.787 175.627 104.558ZM174.936 108.448L177.907 109.244L174.467 122.082L171.496 121.286L174.936 108.448Z" fill="#1D1D1D"/>
<path d="M178.89 116.534L178.93 116.384C179.451 114.705 180.599 113.291 182.135 112.437C183.672 111.583 185.478 111.354 187.179 111.799C188.88 112.243 190.344 113.326 191.266 114.823C192.189 116.32 192.498 118.114 192.131 119.833L192.076 120.038C191.545 121.713 190.388 123.119 188.846 123.962C187.305 124.806 185.497 125.023 183.8 124.569C182.102 124.114 180.645 123.022 179.732 121.52C178.819 120.019 178.52 118.223 178.897 116.506L178.89 116.534ZM189.03 119.251L189.07 119.101C189.8 116.375 188.85 114.47 186.683 113.889C184.516 113.308 182.7 114.472 181.995 117.103L181.94 117.307C181.239 119.924 182.16 121.938 184.368 122.53C186.576 123.121 188.339 121.826 189.041 119.21L189.03 119.251Z" fill="#1D1D1D"/>
<path d="M196.496 114.225L199.467 115.021L198.919 117.066C199.51 116.441 200.265 115.996 201.097 115.782C201.93 115.569 202.806 115.595 203.625 115.858C206.201 116.548 207.615 118.519 206.666 122.063L204.504 130.131L201.642 129.364L203.731 121.568C204.249 119.633 203.696 118.536 201.924 118.061C201.524 117.927 201.1 117.881 200.681 117.925C200.261 117.969 199.856 118.103 199.493 118.317C199.129 118.531 198.816 118.821 198.574 119.167C198.332 119.512 198.168 119.905 198.091 120.32L196.064 127.884L193.052 127.077L196.496 114.225Z" fill="#1D1D1D"/>
<path d="M208.046 127.268C208.849 124.269 212.03 123.953 215.71 124.939L217.318 125.37L217.497 124.702C217.957 122.985 217.601 121.969 215.857 121.502C215.573 121.378 215.266 121.316 214.956 121.319C214.646 121.321 214.34 121.389 214.058 121.517C213.776 121.645 213.524 121.831 213.318 122.062C213.112 122.294 212.957 122.566 212.863 122.862L210.001 122.095C211.05 119.162 213.754 118.557 216.588 119.317C219.423 120.077 221.399 121.862 220.46 125.365L218.203 133.787L215.273 133.002L215.69 131.448C215.079 131.939 214.354 132.267 213.583 132.4C212.811 132.533 212.018 132.467 211.279 132.209C208.907 131.574 207.33 129.939 208.046 127.268ZM216.471 128.532L216.814 127.251L215.302 126.845C213.039 126.239 211.456 126.37 211.036 127.937C210.747 129.014 211.143 129.88 212.615 130.274C214.414 130.756 216.033 130.167 216.471 128.532Z" fill="#1D1D1D"/>
<path d="M226.672 116.03L229.643 116.826L224.633 135.525L221.662 134.729L226.672 116.03Z" fill="#1D1D1D"/>
<path d="M111.215 115.549L116.857 117.061C120.782 118.113 122.894 120.534 121.897 124.255L121.872 124.35C120.878 128.057 117.715 128.962 114.021 127.972L111.622 127.33L109.833 134.008L106.562 133.131L111.215 115.549ZM114.578 125.565C116.745 126.146 118.171 125.403 118.69 123.468L118.715 123.373C119.274 121.288 118.267 120.141 116.182 119.582L113.865 118.962L112.262 124.945L114.578 125.565Z" fill="#1D1D1D"/>
<path d="M120.987 133.155C121.79 130.157 124.972 129.84 128.651 130.826L130.246 131.254L130.425 130.586C130.885 128.869 130.529 127.853 128.784 127.386C128.501 127.271 128.197 127.216 127.892 127.225C127.586 127.234 127.286 127.305 127.009 127.436C126.733 127.566 126.487 127.752 126.286 127.983C126.085 128.213 125.934 128.482 125.842 128.774L122.98 128.007C124.028 125.074 126.732 124.469 129.567 125.229C132.402 125.988 134.377 127.774 133.439 131.277L131.182 139.699L128.252 138.914L128.672 137.347C128.061 137.837 127.336 138.165 126.565 138.298C125.793 138.431 125 138.365 124.261 138.108C121.903 137.476 120.271 135.826 120.987 133.155ZM129.412 134.419L129.756 133.138L128.229 132.729C125.967 132.123 124.383 132.254 123.963 133.821C123.675 134.898 124.071 135.763 125.543 136.158C127.356 136.643 128.96 136.051 129.399 134.416L129.412 134.419Z" fill="#1D1D1D"/>
<path d="M138.016 127.77L140.987 128.566L140.34 130.979C140.902 130.262 141.67 129.736 142.541 129.47C143.411 129.204 144.342 129.212 145.208 129.493L144.478 132.219C141.875 131.521 140.077 131.96 139.347 134.686L137.558 141.364L134.587 140.568L138.016 127.77Z" fill="#1D1D1D"/>
<path d="M145.894 139.799L147.775 132.781L146.057 132.32L146.656 130.085L148.373 130.545L149.129 127.724L152.1 128.52L151.344 131.342L154.166 132.097L153.567 134.333L150.746 133.577L148.92 140.391C148.617 141.522 149.009 142.183 149.95 142.434C150.438 142.586 150.952 142.634 151.46 142.576L150.828 144.934C150.12 144.98 149.409 144.904 148.727 144.707C148.184 144.636 147.664 144.441 147.209 144.136C146.753 143.832 146.373 143.427 146.099 142.952C145.826 142.478 145.664 141.947 145.629 141.4C145.593 140.853 145.684 140.305 145.894 139.799Z" fill="#1D1D1D"/>
<path d="M156.892 132.828L159.863 133.624L159.315 135.669C159.906 135.044 160.661 134.599 161.494 134.385C162.327 134.172 163.203 134.198 164.021 134.461C166.597 135.151 168.012 137.122 167.062 140.666L164.9 148.734L162.038 147.967L164.127 140.171C164.646 138.236 164.092 137.139 162.321 136.664C161.921 136.53 161.497 136.484 161.077 136.528C160.658 136.572 160.253 136.706 159.889 136.92C159.526 137.134 159.213 137.424 158.971 137.77C158.729 138.115 158.564 138.509 158.487 138.923L156.46 146.487L153.448 145.68L156.892 132.828Z" fill="#1D1D1D"/>
<path d="M169.227 143.159L169.267 143.009C169.44 142.13 169.794 141.296 170.306 140.56C170.819 139.825 171.478 139.204 172.244 138.737C173.009 138.271 173.863 137.968 174.751 137.849C175.64 137.73 176.543 137.798 177.404 138.047C180.607 138.905 182.965 141.552 181.734 146.145L181.504 147.004L172.114 144.488C171.559 146.939 172.458 148.655 174.625 149.236C176.41 149.714 177.541 149.258 178.095 148.062L180.97 148.833C179.818 151.445 177.25 152.306 173.952 151.422C173.071 151.238 172.24 150.869 171.513 150.34C170.786 149.81 170.179 149.133 169.732 148.352C169.286 147.572 169.01 146.705 168.923 145.81C168.836 144.915 168.94 144.011 169.227 143.159ZM179.162 144.244C179.603 141.996 178.735 140.711 176.895 140.218C176.043 139.981 175.133 140.084 174.355 140.505C173.578 140.926 172.994 141.633 172.726 142.475L179.162 144.244Z" fill="#1D1D1D"/>
<path d="M186.07 140.647L189.041 141.443L188.395 143.855C188.957 143.139 189.725 142.612 190.595 142.347C191.466 142.081 192.397 142.089 193.263 142.369L192.533 145.095C189.93 144.398 188.132 144.836 187.402 147.562L185.612 154.24L182.641 153.444L186.07 140.647Z" fill="#1D1D1D"/>
<path d="M177.949 64.0023L173.14 62.5969L171.658 67.692L170.158 67.2903L173.546 55.7381L180.644 57.8152L180.304 59.0826L174.685 57.4309L173.537 61.3885L178.346 62.7939L177.949 64.0023Z" fill="#1D1D1D"/>
<path d="M185.194 66.8349L182.921 66.0505L181.3 70.6847L179.871 70.185L183.824 58.8133L187.151 59.9679C187.656 60.1524 188.134 60.4033 188.573 60.714C188.974 61.0018 189.319 61.3616 189.589 61.775C189.842 62.1837 189.999 62.6454 190.045 63.1243C190.098 63.6695 190.02 64.2194 189.82 64.7291C189.707 65.0754 189.536 65.4001 189.314 65.6892C188.892 66.2112 188.326 66.598 187.687 66.8015C187.352 66.9053 187.006 66.9696 186.657 66.9929L187.379 72.6934L187.353 72.7888L185.832 72.2498L185.194 66.8349ZM183.325 64.8731L185.264 65.5389C185.573 65.6512 185.898 65.7088 186.226 65.7091C186.534 65.711 186.839 65.6594 187.129 65.5566C187.424 65.4436 187.69 65.2651 187.906 65.0346C188.122 64.804 188.283 64.5275 188.377 64.2257C188.497 63.8982 188.55 63.55 188.534 63.2016C188.508 62.8991 188.418 62.6057 188.268 62.3414C188.111 62.0716 187.901 61.8364 187.65 61.65C187.371 61.4482 187.065 61.2874 186.741 61.1726L184.842 60.5178L183.325 64.8731Z" fill="#1D1D1D"/>
<path d="M197.642 70.915L192.978 69.0226L191.378 72.9761L196.807 75.1757L196.307 76.3857L189.471 73.6046L193.927 62.4262L200.712 65.1791L200.213 66.3892L194.849 64.2214L193.392 67.8043L198.056 69.6967L197.642 70.915Z" fill="#1D1D1D"/>
<path d="M207.172 75.2511L202.629 73.0698L200.811 76.9649L206.119 79.4534L205.568 80.6351L198.876 77.4833L203.997 66.6003L210.616 69.7029L210.065 70.8847L204.877 68.4427L203.237 71.9472L207.777 74.0839L207.172 75.2511Z" fill="#1D1D1D"/>
<path d="M210.075 81.5358L215.243 84.3813L214.619 85.514L208.1 81.9852L213.857 71.4037L215.21 72.1315L210.075 81.5358Z" fill="#1D1D1D"/>
<path d="M223.373 87.1877L219.967 85.0187L217.501 87.1334L216.251 86.3457L225.954 78.2093L227.028 78.8913L223.85 91.1864L222.604 90.3851L223.373 87.1877ZM221.059 84.1575L223.772 85.863L225.189 80.5751L221.059 84.1575Z" fill="#1D1D1D"/>
<path d="M231.471 96.7052L230.255 95.7949L231.813 85.7828L226.468 93.0274L225.251 92.1171L232.366 82.4106L233.582 83.321L232.042 93.3231L237.369 86.0885L238.586 86.9988L231.471 96.7052Z" fill="#1D1D1D"/>
<path d="M241.699 100.672C241.302 101.027 240.854 101.321 240.37 101.543C239.921 101.752 239.438 101.875 238.944 101.906C238.467 101.925 237.991 101.852 237.541 101.691C237.035 101.507 236.57 101.229 236.169 100.87C235.822 100.57 235.527 100.215 235.296 99.8186C235.08 99.465 234.932 99.0734 234.861 98.6648C234.777 98.2719 234.762 97.8676 234.816 97.4695C234.875 97.0584 234.982 96.6557 235.137 96.2702C235.273 95.853 235.449 95.4502 235.664 95.0675C235.896 94.6888 236.159 94.3292 236.449 93.9923L237.548 92.7239C237.839 92.3907 238.16 92.0856 238.508 91.8126C238.836 91.5321 239.195 91.2901 239.578 91.0913C239.946 90.8944 240.336 90.7391 240.739 90.6283C241.529 90.4206 242.365 90.4706 243.125 90.7711C243.551 90.9495 243.943 91.1979 244.287 91.5059C244.709 91.86 245.059 92.291 245.32 92.776C245.552 93.208 245.694 93.6834 245.734 94.1725C245.766 94.6506 245.707 95.1305 245.56 95.5865C245.391 96.105 245.146 96.5956 244.834 97.0425L243.646 96.0232C243.837 95.7334 243.994 95.4225 244.114 95.0967C244.223 94.7932 244.284 94.4742 244.294 94.1517C244.292 93.8372 244.226 93.5264 244.1 93.238C243.941 92.9117 243.715 92.6223 243.437 92.3884C243.191 92.1692 242.902 92.0024 242.59 91.8984C242.318 91.8049 242.029 91.7674 241.743 91.7883C241.447 91.8121 241.157 91.8823 240.883 91.9963C240.603 92.1123 240.335 92.2556 240.082 92.4243C239.819 92.6008 239.571 92.798 239.34 93.0142C239.108 93.2198 238.888 93.439 238.682 93.6705L237.579 94.9525C237.373 95.1817 237.182 95.4231 237.005 95.6753C236.831 95.9395 236.675 96.2147 236.536 96.4991C236.392 96.7771 236.279 97.0702 236.2 97.373C236.129 97.6565 236.1 97.9489 236.114 98.2409C236.138 98.5311 236.215 98.8144 236.342 99.0764C236.493 99.373 236.7 99.637 236.952 99.8533C237.217 100.09 237.525 100.272 237.861 100.389C238.158 100.49 238.475 100.52 238.787 100.476C239.099 100.434 239.402 100.337 239.681 100.19C239.99 100.021 240.279 99.8198 240.544 99.5886L241.699 100.672Z" fill="#1D1D1D"/>
<path d="M249.538 106.089L246.136 102.431L243.017 105.35L247.028 109.623L246.085 110.525L241.032 105.125L249.809 96.9006L254.822 102.232L253.866 103.129L249.878 98.8766L247.093 101.475L250.495 105.133L249.538 106.089Z" fill="#1D1D1D"/>
<path d="M253.983 112.728L252.578 110.774L248.594 113.651L247.697 112.417L257.471 105.381L259.538 108.242C259.839 108.685 260.084 109.162 260.267 109.665C260.435 110.15 260.501 110.665 260.46 111.177C260.456 111.655 260.33 112.124 260.095 112.54C259.826 113.007 259.454 113.407 259.008 113.71C258.711 113.929 258.38 114.097 258.027 114.206C257.71 114.308 257.376 114.352 257.043 114.337C256.71 114.333 256.38 114.279 256.063 114.177C255.726 114.071 255.402 113.925 255.099 113.743L252.411 118.866L252.325 118.916L251.389 117.613L253.983 112.728ZM253.552 110.086L254.756 111.752C254.949 112.018 255.182 112.253 255.446 112.448C255.697 112.626 255.979 112.756 256.278 112.832C256.566 112.906 256.867 112.917 257.16 112.864C257.485 112.798 257.791 112.66 258.057 112.461C258.339 112.261 258.58 112.008 258.767 111.717C258.905 111.446 258.985 111.149 259.001 110.845C259.023 110.533 258.983 110.219 258.883 109.922C258.773 109.595 258.614 109.287 258.413 109.007L257.242 107.379L253.552 110.086Z" fill="#1D1D1D"/>
<path d="M258.797 124.798C259.095 124.659 259.347 124.438 259.523 124.16C259.662 123.889 259.742 123.592 259.757 123.288C259.798 122.963 259.797 122.634 259.756 122.309C259.728 121.98 259.685 121.647 259.646 121.359C259.577 120.898 259.536 120.433 259.522 119.968C259.501 119.488 259.541 119.008 259.642 118.539C259.744 118.102 259.915 117.685 260.149 117.302C260.417 116.91 260.788 116.6 261.221 116.406C261.652 116.185 262.133 116.082 262.616 116.108C263.092 116.127 263.557 116.251 263.979 116.473C264.403 116.685 264.787 116.97 265.111 117.317C265.441 117.666 265.713 118.064 265.919 118.497C266.143 118.963 266.291 119.461 266.357 119.973C266.41 120.454 266.383 120.94 266.278 121.413C266.154 121.881 265.937 122.32 265.64 122.702C265.328 123.114 264.924 123.446 264.46 123.672L263.772 122.26C264.045 122.082 264.294 121.869 264.511 121.626C264.701 121.396 264.845 121.132 264.939 120.849C265.029 120.566 265.065 120.268 265.042 119.971C265.005 119.636 264.91 119.309 264.761 119.005C264.634 118.746 264.472 118.506 264.28 118.292C264.088 118.087 263.861 117.918 263.611 117.791C263.372 117.661 263.106 117.59 262.834 117.583C262.544 117.576 262.256 117.64 261.996 117.767C261.715 117.902 261.482 118.12 261.332 118.393C261.201 118.662 261.123 118.953 261.101 119.251C261.068 119.568 261.071 119.887 261.109 120.203C261.138 120.532 261.174 120.834 261.217 121.108C261.272 121.423 261.309 121.74 261.328 122.058C261.356 122.381 261.362 122.704 261.346 123.027C261.334 123.341 261.295 123.653 261.228 123.96C261.161 124.261 261.054 124.552 260.908 124.824C260.774 125.096 260.594 125.345 260.376 125.557C260.111 125.852 259.794 126.094 259.44 126.271C258.996 126.495 258.5 126.594 258.004 126.558C257.529 126.539 257.063 126.414 256.641 126.193C256.223 125.967 255.848 125.668 255.534 125.312C255.214 124.943 254.94 124.536 254.719 124.1C254.494 123.599 254.346 123.067 254.28 122.522C254.203 122.006 254.215 121.48 254.316 120.968C254.419 120.47 254.62 119.998 254.908 119.579C255.211 119.135 255.624 118.777 256.106 118.541L256.798 119.939C256.5 120.126 256.242 120.369 256.036 120.655C255.84 120.907 255.702 121.199 255.632 121.511C255.551 121.822 255.538 122.148 255.595 122.465C255.641 122.816 255.748 123.156 255.91 123.47C256.04 123.734 256.205 123.98 256.401 124.2C256.58 124.421 256.797 124.608 257.042 124.752C257.291 124.87 257.559 124.941 257.833 124.963C258.163 125.004 258.499 124.946 258.797 124.798Z" fill="#1D1D1D"/>
<path d="M262.323 138.291C262.672 138.327 263.012 138.418 263.332 138.561C263.632 138.702 263.913 138.88 264.168 139.092C264.436 139.318 264.682 139.57 264.902 139.844C265.14 140.153 265.36 140.476 265.563 140.81C266.033 140.51 266.527 140.252 267.041 140.037C267.485 139.85 267.967 139.769 268.448 139.801C268.875 139.828 269.292 139.94 269.675 140.129C270.012 140.272 270.308 140.497 270.536 140.784C270.772 141.066 270.942 141.396 271.037 141.751C271.144 142.155 271.18 142.575 271.143 142.991C271.118 143.356 271.022 143.713 270.862 144.041C270.71 144.336 270.501 144.598 270.246 144.811C269.998 145.016 269.713 145.172 269.407 145.272C269.085 145.372 268.748 145.411 268.412 145.386C268.143 145.364 267.88 145.293 267.635 145.178C267.401 145.072 267.182 144.935 266.985 144.77C266.779 144.604 266.594 144.412 266.437 144.199C266.254 143.969 266.085 143.728 265.929 143.479L265.316 142.657L261.78 144.952C262.131 145.179 262.51 145.359 262.907 145.488C263.355 145.64 263.82 145.736 264.292 145.772L264.186 147.204C263.525 147.156 262.874 147.012 262.256 146.774C261.678 146.537 261.145 146.201 260.681 145.783L258.625 147.131L258.747 145.206L259.702 144.585C259.065 143.739 258.754 142.691 258.827 141.634C258.869 141.129 259.001 140.635 259.218 140.176C259.395 139.773 259.652 139.409 259.972 139.107C260.276 138.816 260.639 138.595 261.037 138.458C261.451 138.318 261.888 138.262 262.323 138.291ZM260.075 141.72C260.05 142.109 260.099 142.499 260.22 142.869C260.335 143.248 260.516 143.604 260.757 143.919L264.491 141.487L264.306 141.247C264.127 140.991 263.921 140.755 263.692 140.542C263.521 140.374 263.329 140.229 263.121 140.112C262.961 140.015 262.79 139.94 262.611 139.887L262.23 139.785C261.962 139.769 261.693 139.795 261.434 139.864C261.194 139.94 260.97 140.058 260.771 140.212C260.575 140.38 260.415 140.585 260.302 140.817C260.169 141.101 260.092 141.407 260.075 141.72ZM268.368 141.298C268.043 141.28 267.717 141.327 267.411 141.436C267.045 141.574 266.692 141.743 266.355 141.942L267.06 142.964C267.153 143.124 267.266 143.271 267.395 143.404C267.505 143.512 267.626 143.609 267.756 143.691L268.152 143.797L268.533 143.899C268.694 143.899 268.855 143.883 269.013 143.852C269.171 143.816 269.319 143.746 269.448 143.647C269.575 143.551 269.682 143.431 269.762 143.293C269.845 143.148 269.889 142.984 269.89 142.816C269.899 142.601 269.861 142.387 269.78 142.188C269.704 142.012 269.593 141.852 269.453 141.721C269.304 141.59 269.135 141.485 268.951 141.411C268.762 141.35 268.566 141.312 268.368 141.298Z" fill="#1D1D1D"/>
<path d="M252.506 163.429C252.75 163.654 253.059 163.798 253.388 163.84C253.69 163.878 253.996 163.85 254.287 163.76C254.601 163.672 254.901 163.541 255.18 163.371L256.016 162.865C256.409 162.621 256.815 162.398 257.232 162.197C257.647 161.988 258.087 161.831 258.541 161.73C258.982 161.645 259.434 161.632 259.88 161.694C260.361 161.776 260.81 161.992 261.173 162.318C261.546 162.625 261.836 163.019 262.02 163.465C262.178 163.899 262.248 164.36 262.226 164.821C262.181 165.292 262.058 165.753 261.861 166.184C261.676 166.639 261.424 167.064 261.114 167.444C260.78 167.84 260.384 168.178 259.941 168.444C259.508 168.694 259.036 168.869 258.546 168.962C258.065 169.04 257.573 169.023 257.099 168.91C256.591 168.794 256.118 168.557 255.721 168.219L256.727 167.028C257.002 167.203 257.3 167.337 257.613 167.426C257.898 167.515 258.198 167.546 258.495 167.517C258.791 167.481 259.079 167.39 259.341 167.247C259.637 167.086 259.899 166.868 260.112 166.606C260.292 166.379 260.443 166.13 260.559 165.864C260.678 165.611 260.751 165.339 260.774 165.06C260.787 164.792 260.739 164.524 260.633 164.277C260.519 164.009 260.342 163.771 260.118 163.584C259.878 163.378 259.58 163.253 259.265 163.224C258.97 163.194 258.671 163.228 258.391 163.326C258.09 163.421 257.801 163.549 257.529 163.708L256.744 164.184C256.477 164.361 256.201 164.521 255.924 164.681C255.638 164.834 255.344 164.969 255.041 165.087C254.747 165.2 254.445 165.29 254.136 165.356C253.838 165.414 253.533 165.436 253.228 165.419C252.924 165.381 252.625 165.301 252.343 165.182C252.034 165.06 251.75 164.885 251.502 164.664C251.109 164.363 250.813 163.954 250.65 163.486C250.492 163.051 250.432 162.586 250.474 162.125C250.514 161.652 250.638 161.191 250.839 160.762C251.029 160.305 251.29 159.882 251.613 159.508C251.957 159.098 252.363 158.744 252.815 158.457C253.255 158.18 253.738 157.978 254.245 157.862C254.729 157.76 255.227 157.749 255.714 157.832C256.238 157.935 256.728 158.167 257.14 158.506L256.148 159.701C255.85 159.51 255.521 159.373 255.176 159.295C254.865 159.23 254.545 159.224 254.232 159.275C253.929 159.366 253.647 159.513 253.4 159.71C253.102 159.897 252.837 160.132 252.615 160.405C252.424 160.633 252.263 160.884 252.137 161.153C252.016 161.411 251.942 161.688 251.917 161.971C251.893 162.243 251.929 162.517 252.024 162.774C252.124 163.031 252.29 163.256 252.506 163.429Z" fill="#1D1D1D"/>
<path d="M253.542 174.501L248.409 170.818L250.25 176.92L248.74 177.976L241.627 168.27L242.83 167.38L245.663 171.251L248.544 175.382L246.498 168.845L247.208 168.319L252.578 172.212L249.602 168.435L246.755 164.561L247.954 163.684L255.067 173.39L253.542 174.501Z" fill="#1D1D1D"/>
<path d="M235.867 174.717L239.494 172.957L239.028 169.735L240.405 169.067L242.15 181.527L241.004 182.097L232.299 173.045L233.672 172.39L235.867 174.717ZM239.708 174.285L236.826 175.719L240.53 179.72L239.708 174.285Z" fill="#1D1D1D"/>
<path d="M229.41 175.324L223.889 177.175L223.489 175.943L230.534 173.638L234.277 185.071L232.835 185.546L229.41 175.324Z" fill="#1D1D1D"/>
<path d="M219.656 178.144L213.906 179.379L213.629 178.121L220.884 176.56L223.397 188.334L221.855 188.637L219.656 178.144Z" fill="#1D1D1D"/>
<path d="M205.295 184.799L210.282 184.178L209.75 179.946L203.946 180.728L203.797 179.431L211.137 178.477L212.627 190.416L205.355 191.389L205.192 190.089L210.933 189.377L210.498 185.551L205.419 186.133L205.295 184.799Z" fill="#1D1D1D"/>
<path d="M197.377 184.751L199.775 184.634L199.529 179.719L201.012 179.634L201.618 191.657L198.093 191.838C197.557 191.857 197.021 191.802 196.501 191.674C196.033 191.564 195.59 191.366 195.196 191.091C194.81 190.806 194.494 190.437 194.273 190.011C194.026 189.524 193.89 188.989 193.875 188.443C193.83 187.74 194.017 187.04 194.408 186.454C194.602 186.179 194.83 185.931 195.088 185.715C195.362 185.497 195.658 185.307 195.971 185.148L193.164 180.087L194.777 180.008L197.377 184.751ZM199.85 185.881L197.791 185.987C197.465 186.005 197.145 186.077 196.843 186.2C196.552 186.306 196.286 186.468 196.058 186.676C195.839 186.885 195.667 187.138 195.552 187.417C195.432 187.726 195.383 188.057 195.41 188.387C195.418 188.734 195.501 189.075 195.653 189.387C195.788 189.658 195.977 189.897 196.209 190.091C196.457 190.276 196.738 190.411 197.038 190.488C197.377 190.575 197.727 190.609 198.076 190.591L200.077 190.485L199.85 185.881Z" fill="#1D1D1D"/>
<path d="M180.962 179.827L180.083 191.832L177.304 191.628C176.535 191.584 175.784 191.382 175.096 191.037C174.479 190.74 173.936 190.31 173.505 189.778C173.059 189.239 172.729 188.613 172.536 187.941C172.349 187.194 172.284 186.422 172.346 185.655L172.405 184.779C172.479 184.016 172.679 183.27 172.996 182.572C173.257 181.937 173.652 181.368 174.155 180.902C174.659 180.436 175.257 180.086 175.91 179.876C176.644 179.647 177.416 179.561 178.183 179.623L180.962 179.827ZM178.624 190.463L179.314 180.963L178.084 180.867C177.51 180.821 176.933 180.895 176.389 181.085C175.912 181.258 175.485 181.545 175.143 181.92C174.801 182.281 174.534 182.705 174.355 183.169C174.165 183.714 174.048 184.282 174.005 184.858L173.942 185.746C173.892 186.319 173.93 186.895 174.054 187.456C174.153 187.961 174.352 188.442 174.639 188.869C174.931 189.276 175.31 189.612 175.749 189.853C176.265 190.117 176.832 190.269 177.412 190.299L178.624 190.463Z" fill="#1D1D1D"/>
<path d="M169.081 190.915L161.864 189.989L162.03 188.661L164.855 189.023L166.048 179.717L163.224 179.354L163.396 178.057L170.613 178.982L170.437 180.294L167.616 179.918L166.422 189.224L169.243 189.6L169.081 190.915Z" fill="#1D1D1D"/>
<path d="M152.618 177.783C153.188 177.328 153.853 177.007 154.564 176.844C155.286 176.677 156.036 176.668 156.761 176.819C157.645 176.97 158.452 177.412 159.054 178.076C159.336 178.39 159.571 178.744 159.752 179.125C159.932 179.514 160.068 179.923 160.155 180.343C160.255 180.774 160.309 181.214 160.315 181.657C160.312 182.107 160.275 182.556 160.203 183L159.947 184.392C159.863 184.856 159.741 185.311 159.582 185.755C159.428 186.168 159.238 186.567 159.014 186.947C158.793 187.312 158.535 187.654 158.244 187.967C157.956 188.265 157.622 188.516 157.256 188.71C156.887 188.912 156.485 189.047 156.069 189.108C155.587 189.188 155.095 189.175 154.618 189.07C154.097 188.985 153.596 188.806 153.138 188.542C152.718 188.297 152.349 187.975 152.049 187.593C151.752 187.204 151.538 186.759 151.42 186.285C151.285 185.798 151.238 185.291 151.281 184.787L152.773 185.055C152.763 185.388 152.796 185.721 152.872 186.046C152.941 186.345 153.063 186.63 153.231 186.887C153.401 187.132 153.619 187.339 153.871 187.497C154.163 187.678 154.488 187.8 154.827 187.855C155.151 187.923 155.487 187.918 155.809 187.841C156.099 187.775 156.374 187.655 156.62 187.488C156.862 187.31 157.077 187.097 157.257 186.855C157.451 186.607 157.616 186.338 157.749 186.053C157.894 185.764 158.014 185.464 158.107 185.155C158.207 184.861 158.288 184.56 158.348 184.255L158.604 182.863C158.68 182.577 158.679 182.255 158.691 181.937C158.694 181.611 158.679 181.286 158.646 180.961C158.598 180.644 158.526 180.332 158.429 180.027C158.324 179.738 158.181 179.464 158.005 179.212C157.825 178.968 157.605 178.756 157.355 178.585C157.07 178.409 156.757 178.286 156.43 178.22L155.767 178.13C155.543 178.111 155.317 178.114 155.093 178.139C154.873 178.169 154.658 178.224 154.45 178.303C154.243 178.376 154.056 178.496 153.904 178.653L153.41 181.311L155.823 181.739L155.586 183.004L151.754 182.314L152.618 177.783Z" fill="#1D1D1D"/>
<path d="M147.851 187.447L140.767 185.812L141.132 184.449L143.883 185.084L146.008 175.954L143.257 175.319L143.6 174.038L150.695 175.69L150.355 176.958L147.604 176.323L145.475 185.466L148.226 186.101L147.851 187.447Z" fill="#1D1D1D"/>
<path d="M129.903 181.439L133.501 182.403L136.43 172.072L137.874 172.459L134.935 182.773L138.533 183.737L138.194 185.005L129.617 182.561L129.903 181.439Z" fill="#1D1D1D"/>
<path d="M124.431 171.603L128.246 172.903L130.153 170.259L131.603 170.735L124.073 180.9L122.847 180.571L123.076 167.939L124.509 168.425L124.431 171.603ZM127.42 174.025L124.394 172.996L124.231 178.459L127.42 174.025Z" fill="#1D1D1D"/>
<path d="M119.143 167.732L113.672 165.58L114.144 164.363L121.039 167.087L116.58 178.279L115.155 177.707L119.143 167.732Z" fill="#1D1D1D"/>
<path d="M95.5947 158.794C95.4227 159.077 95.3352 159.403 95.3427 159.734C95.3753 160.039 95.4706 160.333 95.6225 160.598C95.7812 160.882 95.9695 161.148 96.1842 161.391L96.8568 162.097C97.1753 162.43 97.4767 162.779 97.7599 163.143C98.0499 163.509 98.2959 163.909 98.4928 164.333C98.6721 164.743 98.7771 165.181 98.803 165.628C98.8102 166.107 98.6837 166.579 98.4378 166.991C98.2112 167.417 97.883 167.781 97.4822 168.05C97.1004 168.306 96.6661 168.474 96.211 168.541C95.7288 168.621 95.2362 168.612 94.7569 168.517C94.2925 168.424 93.8426 168.269 93.4196 168.056C92.9699 167.809 92.5617 167.493 92.2101 167.119C91.8775 166.751 91.6103 166.328 91.4199 165.87C91.2367 165.415 91.1438 164.929 91.1463 164.438C91.1681 163.92 91.304 163.413 91.5443 162.953L92.9385 163.691C92.8007 163.988 92.7154 164.306 92.6866 164.632C92.663 164.931 92.6962 165.233 92.7846 165.52C92.8776 165.801 93.027 166.059 93.2236 166.28C93.65 166.739 94.2098 167.053 94.8239 167.177C95.1006 167.237 95.3862 167.244 95.6655 167.198C95.9298 167.151 96.1811 167.049 96.403 166.898C96.6461 166.735 96.8422 166.51 96.9718 166.248C97.1392 165.983 97.222 165.674 97.2092 165.362C97.1689 165.064 97.0665 164.777 96.9084 164.521C96.7561 164.245 96.5695 163.989 96.3531 163.759C96.1416 163.513 95.9228 163.293 95.7277 163.095C95.5325 162.897 95.2938 162.643 95.0823 162.396C94.8725 162.152 94.6779 161.895 94.4997 161.627C94.32 161.362 94.1654 161.081 94.0381 160.787C93.9217 160.508 93.8382 160.216 93.7892 159.917C93.7441 159.612 93.7436 159.302 93.7876 158.996C93.8263 158.668 93.9124 158.346 94.0432 158.042C94.2683 157.602 94.6051 157.229 95.0197 156.96C95.4121 156.722 95.8512 156.57 96.3072 156.516C96.7885 156.455 97.2767 156.477 97.7504 156.582C98.2148 156.68 98.6626 156.844 99.0805 157.07C99.5319 157.314 99.9404 157.631 100.29 158.007C100.661 158.374 100.961 158.806 101.175 159.281C101.388 159.741 101.504 160.239 101.514 160.745C101.509 161.285 101.367 161.815 101.101 162.285L99.7204 161.55C99.8724 161.234 99.9641 160.892 99.9906 160.542C99.99 160.223 99.9254 159.908 99.8009 159.614C99.6817 159.317 99.4994 159.049 99.2665 158.828C99.0245 158.574 98.7395 158.364 98.4247 158.208C98.1657 158.068 97.8905 157.96 97.6053 157.887C97.3275 157.822 97.0409 157.805 96.7574 157.835C96.4816 157.866 96.2166 157.96 95.9827 158.109C95.7951 158.299 95.6612 158.535 95.5947 158.794Z" fill="#1D1D1D"/>
<path d="M81.0991 159.146L84.2769 161.078L89.8829 151.931L91.1362 152.705L85.5302 161.852L88.7081 163.784L88.0287 164.902L80.4134 160.233L81.0991 159.146Z" fill="#1D1D1D"/>
<path d="M71.9256 154.292L76.627 147.649C76.9418 147.197 77.3384 146.808 77.7963 146.502C78.2251 146.223 78.7036 146.028 79.2057 145.93C79.6879 145.832 80.1847 145.831 80.6672 145.927C81.194 146.042 81.6913 146.265 82.1279 146.581C82.5828 146.897 82.9714 147.299 83.2716 147.764C83.5241 148.202 83.6925 148.683 83.768 149.183C83.8604 149.706 83.8409 150.244 83.7107 150.76C83.578 151.277 83.353 151.766 83.0464 152.203L78.345 158.846L77.1136 157.99L81.8186 151.333C82.0152 151.042 82.1692 150.724 82.276 150.39C82.3757 150.075 82.4194 149.746 82.4053 149.416C82.393 149.086 82.3047 148.762 82.1474 148.471C81.9737 148.158 81.7314 147.888 81.4385 147.682C81.1506 147.473 80.8178 147.334 80.4665 147.276C80.1439 147.222 79.8134 147.244 79.5003 147.338C79.1818 147.433 78.8835 147.586 78.62 147.789C78.3394 147.997 78.0907 148.245 77.882 148.526L73.1806 155.169L71.9256 154.292Z" fill="#1D1D1D"/>
<path d="M76.9799 143.011L69.2271 152.21L67.0943 150.412C66.5045 149.897 66.0219 149.272 65.6741 148.57C65.3557 147.969 65.1696 147.307 65.1284 146.628C65.103 145.941 65.217 145.256 65.4634 144.614C65.7343 143.921 66.1187 143.279 66.6009 142.713L67.1634 142.031C67.6572 141.441 68.2464 140.937 68.9066 140.541C69.4958 140.194 70.1473 139.967 70.8242 139.871C71.5042 139.8 72.1916 139.87 72.8435 140.077C73.5747 140.32 74.2509 140.704 74.8335 141.209L76.9799 143.011ZM68.8459 150.253L74.9922 142.96L74.0507 142.167C73.6107 141.785 73.0937 141.502 72.5348 141.338C72.0619 141.216 71.5682 141.198 71.0879 141.286C70.5858 141.395 70.1093 141.599 69.6848 141.889C69.2095 142.201 68.7793 142.577 68.4065 143.007L67.7921 143.719C67.4221 144.157 67.1145 144.645 66.8779 145.168C66.6585 145.631 66.5248 146.13 66.4835 146.64C66.4718 147.143 66.5783 147.642 66.7944 148.096C67.0672 148.617 67.4397 149.079 67.8907 149.457L68.8459 150.253Z" fill="#1D1D1D"/>
<path d="M60.6373 144.738L55.5602 139.536L56.5102 138.607L58.5437 140.613L65.248 134.127L63.2146 132.121L64.1609 131.206L69.238 136.409L68.288 137.337L66.3227 135.35L59.6037 141.89L61.5691 143.878L60.6373 144.738Z" fill="#1D1D1D"/>
<path d="M53.435 126.097C53.7779 125.853 54.1481 125.617 54.5283 125.397C54.9167 125.199 55.3188 125.028 55.7314 124.887C56.1367 124.754 56.5563 124.671 56.9814 124.637C57.3898 124.599 57.8018 124.625 58.2019 124.716C58.6048 124.799 58.9887 124.956 59.3338 125.18C59.716 125.428 60.0523 125.741 60.3279 126.104C60.6074 126.468 60.8238 126.877 60.9681 127.312C61.0785 127.71 61.1259 128.122 61.1084 128.533C61.0574 128.941 60.9505 129.34 60.7907 129.719C60.641 130.121 60.4451 130.505 60.2068 130.863C59.9733 131.23 59.7051 131.574 59.4057 131.89C59.1011 132.202 58.7784 132.496 58.4395 132.77L57.3442 133.587C56.9908 133.849 56.6197 134.086 56.2336 134.297C55.8489 134.503 55.4462 134.674 55.0306 134.807C54.6284 134.935 54.214 135.019 53.7942 135.06C53.3804 135.094 52.9639 135.071 52.5564 134.991C52.1553 134.903 51.7724 134.746 51.4245 134.528C51.0349 134.278 50.6945 133.959 50.4204 133.587C50.1413 133.225 49.9291 132.817 49.7938 132.382C49.6726 131.985 49.6206 131.571 49.6399 131.157C49.684 130.748 49.7912 130.348 49.9576 129.971C50.1077 129.575 50.2975 129.196 50.5242 128.838C50.7662 128.466 51.045 128.12 51.3562 127.804C51.6609 127.492 51.9835 127.198 52.3225 126.924L53.435 126.097ZM53.2362 128.148C53.0143 128.322 52.785 128.523 52.5521 128.738C52.33 128.957 52.1215 129.189 51.9277 129.433C51.7306 129.675 51.5619 129.938 51.4251 130.219C51.2865 130.483 51.1861 130.766 51.1269 131.059C51.08 131.344 51.0914 131.635 51.1604 131.915C51.2394 132.232 51.3836 132.53 51.5838 132.788C51.7732 133.045 52.0144 133.259 52.292 133.416C52.5589 133.539 52.8446 133.615 53.137 133.642C53.4306 133.666 53.726 133.647 54.0141 133.585C54.319 133.523 54.6173 133.431 54.9051 133.313C55.1978 133.192 55.4806 133.048 55.7509 132.882C56.0101 132.738 56.2588 132.575 56.4949 132.395L57.6111 131.555C57.8195 131.377 58.0451 131.189 58.278 130.974C58.5013 130.751 58.711 130.514 58.906 130.266C59.1041 130.019 59.2739 129.751 59.4123 129.466C59.5574 129.205 59.6582 128.921 59.7105 128.626C59.7567 128.337 59.7465 128.042 59.6806 127.756C59.6104 127.443 59.4689 127.15 59.2672 126.901C59.0747 126.632 58.8246 126.411 58.5354 126.252C58.2731 126.13 57.9919 126.055 57.7041 126.029C57.4105 126.012 57.1159 126.031 56.8269 126.086C56.5199 126.151 56.2202 126.247 55.9323 126.372C55.6416 126.498 55.3591 126.642 55.0865 126.803C54.8282 126.967 54.5789 127.134 54.3388 127.304L53.2362 128.148Z" fill="#1D1D1D"/>
<path d="M50.9084 116.992C50.614 117.137 50.3694 117.366 50.206 117.651C50.0663 117.927 49.9855 118.228 49.9686 118.537C49.9386 118.861 49.9492 119.188 50.0002 119.509C50.038 119.841 50.0839 120.16 50.1381 120.467C50.2254 120.921 50.2828 121.38 50.31 121.842C50.3434 122.323 50.3169 122.807 50.2311 123.282C50.1582 123.724 49.9999 124.148 49.7651 124.53C49.5227 124.936 49.1661 125.262 48.7397 125.467C48.3132 125.705 47.8323 125.828 47.3442 125.824C46.868 125.807 46.4019 125.682 45.9813 125.459C45.5493 125.263 45.1571 124.99 44.8244 124.652C44.4761 124.318 44.1855 123.93 43.9641 123.501C43.7218 123.045 43.5577 122.552 43.4787 122.042C43.4078 121.56 43.4207 121.069 43.5168 120.591C43.6185 120.122 43.8121 119.677 44.0864 119.283C44.3954 118.868 44.7913 118.526 45.2464 118.279L45.9864 119.661C45.7166 119.849 45.4743 120.075 45.2667 120.33C44.9052 120.809 44.7441 121.41 44.8175 122.006C44.8585 122.34 44.966 122.662 45.1336 122.953C45.2703 123.207 45.4376 123.443 45.6317 123.656C45.8321 123.854 46.0657 124.015 46.3219 124.133C46.5608 124.263 46.827 124.334 47.0987 124.341C47.3908 124.328 47.6763 124.25 47.9343 124.112C48.2071 123.965 48.43 123.74 48.5749 123.466C48.7119 123.199 48.7903 122.907 48.8049 122.607C48.827 122.287 48.8152 121.966 48.7697 121.648C48.7238 121.329 48.6705 121.037 48.6136 120.759L48.472 119.816C48.4347 119.492 48.4196 119.166 48.4268 118.839C48.4282 118.529 48.4575 118.219 48.5143 117.913C48.552 117.609 48.6319 117.31 48.7516 117.028C48.8805 116.749 49.0574 116.494 49.2742 116.277C49.4997 116.029 49.7674 115.824 50.0648 115.67C50.4977 115.43 50.9889 115.313 51.4839 115.335C51.9597 115.354 52.4253 115.479 52.8468 115.7C53.2671 115.923 53.6484 116.212 53.9755 116.558C54.3147 116.907 54.6019 117.304 54.8284 117.736C55.0816 118.203 55.2569 118.709 55.3474 119.233C55.4447 119.746 55.4521 120.272 55.3692 120.787C55.2869 121.288 55.0992 121.765 54.8185 122.188C54.5375 122.668 54.1339 123.064 53.6493 123.336L52.9093 121.954C53.1966 121.747 53.4473 121.493 53.6509 121.203C53.8298 120.942 53.9535 120.647 54.0146 120.337C54.0795 120.024 54.0815 119.702 54.0203 119.389C53.9572 119.04 53.8405 118.703 53.6743 118.39C53.5336 118.131 53.363 117.89 53.1662 117.67C52.9708 117.46 52.7411 117.285 52.4869 117.152C52.2455 117.029 51.9808 116.958 51.7101 116.944C51.4432 116.89 51.1669 116.907 50.9084 116.992Z" fill="#1D1D1D"/>
<path d="M44.6253 95.2526C45.064 95.2664 45.5012 95.3103 45.9339 95.3841C46.3618 95.4549 46.7818 95.5674 47.1878 95.7201C47.5904 95.8547 47.972 96.0455 48.3214 96.2868C48.6709 96.5026 48.983 96.7737 49.2456 97.0895C49.5108 97.4092 49.7199 97.7714 49.8642 98.1609C50.0104 98.5929 50.0814 99.0467 50.0744 99.5026C50.0677 99.9778 49.9811 100.448 49.8182 100.895C49.6655 101.276 49.4477 101.628 49.1744 101.935C48.9068 102.248 48.5929 102.518 48.2437 102.737C47.8798 102.957 47.4936 103.137 47.0915 103.275C46.6769 103.412 46.2531 103.518 45.8232 103.593C45.3928 103.654 44.959 103.689 44.5243 103.698L43.1419 103.678C42.7078 103.665 42.2751 103.623 41.8469 103.55C41.4145 103.478 40.99 103.364 40.5795 103.21C40.1828 103.062 39.8029 102.872 39.4459 102.644C39.0983 102.425 38.7866 102.154 38.5216 101.841C38.2524 101.524 38.0428 101.161 37.903 100.77C37.7429 100.336 37.6726 99.8753 37.6965 99.4142C37.6858 98.9375 37.773 98.4637 37.9527 98.0221C38.0972 97.6338 38.3121 97.2754 38.5865 96.9649C38.8555 96.654 39.1732 96.3889 39.5272 96.1799C39.8903 95.9526 40.2781 95.7674 40.6831 95.6278C41.0931 95.4836 41.5169 95.3817 41.9477 95.3239C42.3827 95.2637 42.821 95.2299 43.2602 95.2228L44.6253 95.2526ZM43.2275 96.7624C42.9366 96.7575 42.6385 96.7798 42.3267 96.7986C42.0122 96.8296 41.7002 96.8826 41.3931 96.9574C41.0949 97.0358 40.8035 97.1385 40.5221 97.2645C40.2505 97.3877 39.9996 97.552 39.778 97.7516C39.5605 97.9507 39.3863 98.1924 39.2664 98.4618C39.1177 98.7492 39.033 99.0653 39.0181 99.3885C39.0124 99.7078 39.0772 100.024 39.2078 100.316C39.3505 100.588 39.5509 100.826 39.795 101.014C40.0096 101.218 40.2551 101.387 40.5224 101.515C40.8046 101.649 41.0984 101.757 41.4 101.838C41.6986 101.94 42.0036 102.022 42.3131 102.083L43.1983 102.159L44.5843 102.165C44.882 102.163 45.1793 102.145 45.4751 102.112C45.79 102.084 46.1022 102.031 46.4087 101.953C46.714 101.875 47.0114 101.769 47.297 101.636C47.5685 101.513 47.8195 101.349 48.0411 101.149C48.2736 100.946 48.4584 100.695 48.5821 100.412C48.7058 100.129 48.7653 99.823 48.7565 99.5147C48.7705 99.1867 48.7081 98.8599 48.574 98.5602C48.4544 98.2961 48.2853 98.0575 48.0759 97.857C47.8632 97.6503 47.6173 97.4807 47.3485 97.3553C47.0668 97.2204 46.7729 97.1123 46.4709 97.0326C46.1768 96.9321 45.8763 96.8515 45.5714 96.7915L44.669 96.725L43.2275 96.7624Z" fill="#1D1D1D"/>
<path d="M46.9896 88.3345L46.1916 90.604L50.8259 92.2255L50.337 93.6136L38.9691 89.6473L40.1373 86.3232C40.3218 85.8183 40.5727 85.3403 40.8834 84.9017C41.1664 84.4963 41.527 84.151 41.9443 83.8859C42.3531 83.6322 42.8148 83.476 43.2937 83.4295C43.8387 83.3841 44.387 83.4611 44.8985 83.655C45.242 83.7744 45.5657 83.9448 45.8585 84.1605C46.1169 84.3746 46.3453 84.6225 46.5375 84.8975C46.7289 85.1735 46.874 85.4788 46.9672 85.8015C47.0679 86.1369 47.1321 86.4822 47.1587 86.8315L52.8591 86.1094L52.9545 86.1349L52.4155 87.6557L46.9896 88.3345ZM45.0315 90.1908L45.7109 88.2548C45.8102 87.9431 45.8674 87.6195 45.8811 87.2926C45.8798 86.9854 45.8282 86.6805 45.7286 86.3899C45.6178 86.1116 45.4522 85.8586 45.2414 85.6458C44.9931 85.4202 44.7014 85.2476 44.3841 85.1385C44.0605 85.0176 43.7142 84.9697 43.3699 84.9983C43.0686 85.0139 42.7751 85.1005 42.5135 85.2508C42.2436 85.4081 42.0084 85.6183 41.822 85.8689C41.6202 86.1476 41.4595 86.4538 41.3447 86.7782L40.6762 88.6733L45.0315 90.1908Z" fill="#1D1D1D"/>
<path d="M62.4288 71.4369L59.2793 73.9235L60.4499 76.9687L59.26 77.9207L54.8252 66.0691L55.8277 65.2714L66.305 72.3441L65.105 73.2788L62.4288 71.4369ZM58.7773 72.635L61.2818 70.6476L56.7847 67.5875L58.7773 72.635Z" fill="#1D1D1D"/>
<path d="M73.8523 66.5807C73.6963 67.3055 73.3745 67.9842 72.912 68.5637C72.4567 69.1579 71.8774 69.6457 71.2143 69.9931C70.7986 70.21 70.3497 70.3563 69.886 70.426C69.466 70.492 69.0378 70.486 68.6199 70.4081C68.2049 70.3326 67.8034 70.1955 67.4289 70.0013C67.0477 69.8061 66.69 69.5681 66.3627 69.292C66.0179 69.0119 65.7063 68.6931 65.4341 68.342C65.1478 67.9894 64.8974 67.6091 64.6865 67.2069L64.0363 65.9809C63.8373 65.5801 63.6703 65.1642 63.537 64.737C63.249 63.9145 63.1445 63.0389 63.2311 62.1718C63.268 61.7612 63.3755 61.3601 63.5488 60.9861C63.72 60.5985 63.9538 60.2417 64.2408 59.9299C64.5577 59.5884 64.9349 59.3082 65.3533 59.1032C65.8173 58.8531 66.3218 58.6866 66.8436 58.6115C67.3239 58.5427 67.8132 58.5696 68.2831 58.6905C68.7497 58.8192 69.1874 59.0357 69.573 59.3282C69.989 59.6578 70.3468 60.0548 70.6313 60.5029L69.288 61.2093C69.0902 60.9363 68.856 60.6917 68.5918 60.4822C68.3627 60.282 68.095 60.1307 67.8053 60.0378C67.5213 59.9446 67.2207 59.9138 66.9238 59.9476C66.5831 59.9905 66.2531 60.0951 65.95 60.2564C65.6511 60.4029 65.3864 60.6107 65.1731 60.8662C64.9924 61.1012 64.8526 61.365 64.7595 61.6465C64.6721 61.9341 64.6313 62.2338 64.6385 62.5343C64.6445 62.8519 64.677 63.1684 64.7355 63.4805C64.803 63.7923 64.8916 64.0991 65.0007 64.3988L65.3869 65.2473L66.0434 66.5041C66.1949 66.7782 66.3631 67.0428 66.5469 67.2963C66.7295 67.5612 66.9374 67.8077 67.1677 68.0324C67.3981 68.2525 67.6479 68.4514 67.914 68.6268C68.1715 68.795 68.4501 68.9286 68.7425 69.024C69.0381 69.1057 69.345 69.1386 69.6512 69.1214C69.9837 69.086 70.3068 68.9893 70.6041 68.8363L71.1743 68.5071C71.3654 68.3809 71.5453 68.2385 71.712 68.0814C71.8703 67.9282 72.0058 67.7529 72.1143 67.5611C72.215 67.3718 72.2712 67.1621 72.2786 66.9478L71.0391 64.5415L68.8673 65.6686L68.267 64.5291L71.6757 62.7109L73.8523 66.5807Z" fill="#1D1D1D"/>
<path d="M81.0316 59.7399L76.2944 61.3921L77.7119 65.4237L83.2448 63.4735L83.6759 64.6992L76.6791 67.2066L72.6663 55.9063L79.5694 53.4761L80.0142 54.7054L74.5469 56.6293L75.834 60.2754L80.5712 58.6233L81.0316 59.7399Z" fill="#1D1D1D"/>
<path d="M93.4871 62.3182L91.9343 62.6617L85.3524 54.9529L87.3814 63.7351L85.8323 64.065L83.1306 52.3418L84.6797 52.0119L91.2553 59.6898L89.219 50.9349L90.7718 50.5914L93.4871 62.3182Z" fill="#1D1D1D"/>
<path d="M103.181 57.2174C103.195 57.7518 103.126 58.2852 102.977 58.7986C102.83 59.261 102.605 59.6948 102.312 60.0811C102.012 60.4676 101.638 60.7896 101.211 61.0277C100.717 61.2825 100.178 61.4407 99.625 61.4939C99.1714 61.5688 98.7081 61.5633 98.2563 61.4777C97.8552 61.3987 97.4693 61.2559 97.1134 61.0546C96.7601 60.8565 96.4437 60.5988 96.1782 60.2928C95.8964 59.9869 95.6538 59.6471 95.456 59.2813C95.2453 58.906 95.0775 58.5082 94.9557 58.0955C94.8184 57.6725 94.7147 57.2393 94.6455 56.8L94.4402 55.1674C94.3824 54.7257 94.3601 54.2801 94.3736 53.8349C94.3881 53.4024 94.4447 52.9724 94.5424 52.5509C94.6339 52.1443 94.7738 51.7503 94.9592 51.3771C95.1318 51.0129 95.3641 50.6802 95.6466 50.3927C95.9323 50.097 96.2649 49.8506 96.6308 49.6631C97.0449 49.4596 97.4903 49.3271 97.9483 49.2712C98.4922 49.1906 99.0464 49.2103 99.5833 49.3295C100.052 49.4418 100.493 49.6446 100.884 49.9264C101.277 50.2252 101.609 50.5968 101.862 51.0209C102.143 51.4883 102.357 51.9931 102.497 52.5204L100.977 52.7412C100.885 52.3993 100.753 52.0696 100.583 51.7592C100.424 51.4792 100.22 51.2272 99.9793 51.0132C99.7436 50.8059 99.4661 50.6519 99.1655 50.5614C98.818 50.4659 98.4537 50.4481 98.0986 50.5092C97.7704 50.5434 97.4535 50.6478 97.1693 50.8153C96.9201 50.9611 96.7036 51.1567 96.5333 51.3899C96.3554 51.6266 96.2158 51.8899 96.1198 52.1701C95.9384 52.7639 95.8563 53.3835 95.8767 54.0039C95.8809 54.3136 95.9054 54.6228 95.9501 54.9292L96.1853 56.6137C96.2279 56.916 96.2891 57.2153 96.3688 57.51C96.4432 57.8214 96.5422 58.1263 96.6649 58.422C96.79 58.7018 96.9377 58.971 97.1065 59.2269C97.2722 59.4715 97.4753 59.6886 97.7084 59.8702C97.9415 60.0427 98.2036 60.1723 98.4823 60.2528C98.8047 60.3336 99.1407 60.3439 99.4674 60.2831C99.8229 60.2453 100.166 60.1333 100.476 59.9544C100.741 59.7986 100.968 59.5848 101.14 59.329C101.314 59.0594 101.442 58.7633 101.521 58.4524C101.594 58.1111 101.629 57.7627 101.624 57.4136L103.181 57.2174Z" fill="#1D1D1D"/>
<path d="M105.247 48.5828L112.51 48.1334L112.594 49.4559L109.713 49.6333L110.301 58.9936L113.183 58.8162L113.267 60.1387L106 60.6017L105.916 59.2792L108.739 59.1008L108.15 49.7405L105.331 49.9053L105.247 48.5828Z" fill="#1D1D1D"/>
<path d="M122.757 54.5897L117.723 54.57L117.72 58.8345L123.558 58.8506L123.56 60.1512L116.175 60.1296L116.235 48.0217L123.531 48.0486L123.52 49.3455L117.685 49.3158L117.742 53.2458L122.719 53.2064L122.757 54.5897Z" fill="#1D1D1D"/>
<path d="M132.774 57.5507C132.807 57.2216 132.744 56.89 132.592 56.5962C132.439 56.3309 132.232 56.101 131.984 55.922C131.722 55.725 131.437 55.5604 131.136 55.432L130.224 55.1291C129.78 54.9536 129.346 54.7544 128.923 54.5323C128.51 54.3209 128.124 54.0605 127.773 53.7565C127.441 53.4575 127.165 53.1017 126.959 52.7058C126.746 52.2822 126.656 51.8079 126.698 51.3358C126.702 50.8579 126.828 50.389 127.063 49.973C127.32 49.5881 127.648 49.2547 128.027 48.9898C128.428 48.7338 128.868 48.5458 129.33 48.4333C130.283 48.1945 131.288 48.269 132.195 48.6458C132.658 48.8352 133.079 49.1119 133.437 49.4607C133.798 49.7965 134.082 50.2064 134.269 50.6623C134.475 51.1453 134.564 51.6695 134.531 52.1932L132.965 52.095C132.947 51.7612 132.877 51.4323 132.759 51.1195C132.661 50.8369 132.507 50.577 132.307 50.3555C132.105 50.1411 131.864 49.9674 131.596 49.8439C131.293 49.6974 130.965 49.6094 130.629 49.5846C130.34 49.5692 130.05 49.5896 129.765 49.6454C129.493 49.7113 129.235 49.8252 129.003 49.9816C128.774 50.1303 128.582 50.3282 128.439 50.5608C128.297 50.8153 128.221 51.1009 128.216 51.3922C128.184 51.7017 128.254 52.0133 128.417 52.2786C128.568 52.5396 128.779 52.7613 129.032 52.9255C129.286 53.1156 129.563 53.2731 129.856 53.3946C130.17 53.4786 130.434 53.637 130.699 53.7373L131.576 54.1183C131.871 54.2527 132.157 54.4073 132.431 54.581C132.692 54.7487 132.939 54.9371 133.171 55.1445C133.664 55.5477 134.027 56.087 134.216 56.6954C134.298 57.0175 134.327 57.351 134.302 57.6825C134.28 58.1613 134.13 58.6254 133.869 59.0271C133.608 59.4056 133.269 59.7233 132.874 59.9584C132.467 60.2083 132.019 60.385 131.551 60.4804C131.063 60.5879 130.562 60.621 130.064 60.5786C129.53 60.5473 129.003 60.431 128.506 60.234C128.046 60.0513 127.622 59.7893 127.252 59.46C126.865 59.1251 126.553 58.713 126.335 58.2501C126.105 57.7702 126.001 57.2396 126.032 56.7083L127.602 56.7929C127.623 57.138 127.705 57.4766 127.845 57.7929C127.973 58.087 128.161 58.3513 128.397 58.5689C128.628 58.7955 128.905 58.9694 129.21 59.0788C129.527 59.2281 129.869 59.3197 130.218 59.349C130.512 59.3656 130.806 59.3465 131.095 59.2919C131.377 59.2435 131.647 59.1424 131.891 58.9938C132.13 58.859 132.332 58.6673 132.479 58.4356C132.667 58.1788 132.771 57.8693 132.774 57.5507Z" fill="#1D1D1D"/>
<path d="M150.277 56.719C150.306 56.4788 150.427 56.2595 150.616 56.1086C150.725 56.0344 150.848 55.984 150.978 55.9608C151.107 55.9376 151.24 55.9421 151.368 55.9741C151.497 55.9836 151.622 56.0225 151.734 56.0879C151.845 56.1532 151.941 56.2433 152.012 56.3512C152.079 56.4521 152.126 56.5653 152.149 56.6844C152.173 56.8035 152.172 56.926 152.148 57.0448C152.114 57.2808 151.989 57.494 151.799 57.6379C151.576 57.7711 151.312 57.8199 151.056 57.7754C150.8 57.7309 150.568 57.5961 150.403 57.3954C150.336 57.2977 150.29 57.187 150.268 57.0705C150.247 56.954 150.25 56.8342 150.277 56.719Z" fill="#1D1D1D"/>
<path d="M133.049 202.674C206.06 222.238 275.221 200.876 287.524 154.962C299.826 109.047 250.612 55.9673 177.601 36.404C104.59 16.8407 35.429 38.2024 23.1263 84.1167C10.8236 130.031 60.0377 183.111 133.049 202.674Z" stroke="#1D1D1D" stroke-width="0.989847" stroke-miterlimit="10"/>
</g>
<defs>
<clipPath id="clip0_2717_86898">
<rect width="275.121" height="173.533" fill="white" transform="translate(44.9141 0.134766) rotate(15)"/>
</clipPath>
</defs>
</svg>
